<svg width="27" height="23" viewBox="0 0 27 23" fill="none" xmlns="http://www.w3.org/2000/svg">
<path d="M12.5 10.8125V10.8125V10.8125V10.8125V10.8125V10.8125V10.8125V10.8125V10.8125V10.8125V10.8125V10.8125V10.8125V10.8125V10.8125V10.8125V10.8125V10.8125V10.8125V10.8125V10.8125V10.8125V10.8125V10.8125V10.8125V10.8125V10.8125V10.8125V10.8125M1.46875 8.75C1.38542 8.4375 1.32812 8.125 1.29688 7.8125C1.26562 7.5 1.25 7.17708 1.25 6.84375C1.25 4.88542 1.90625 3.25521 3.21875 1.95312C4.53125 0.651042 6.16667 0 8.125 0C9.1875 0 10.2135 0.229167 11.2031 0.6875C12.1927 1.14583 13.0417 1.79167 13.75 2.625C14.4583 1.79167 15.3021 1.14583 16.2812 0.6875C17.2604 0.229167 18.2917 0 19.375 0C21.3333 0 22.9688 0.651042 24.2812 1.95312C25.5938 3.25521 26.25 4.88542 26.25 6.84375C26.25 6.86458 26.25 6.875 26.25 6.875C26.25 6.875 26.25 6.88542 26.25 6.90625C25.8542 6.55208 25.4271 6.24479 24.9688 5.98438C24.5104 5.72396 24.0208 5.51042 23.5 5.34375C23.2083 4.48958 22.6875 3.80208 21.9375 3.28125C21.1875 2.76042 20.3333 2.5 19.375 2.5C18.4792 2.5 17.6146 2.76562 16.7812 3.29688C15.9479 3.82812 15.1771 4.60417 14.4688 5.625H13.0312C12.3438 4.625 11.5729 3.85417 10.7188 3.3125C9.86458 2.77083 9 2.5 8.125 2.5C6.89583 2.5 5.85938 2.92188 5.01562 3.76562C4.17188 4.60938 3.75 5.63542 3.75 6.84375C3.75 7.17708 3.78125 7.49479 3.84375 7.79688C3.90625 8.09896 4 8.41667 4.125 8.75H1.46875V8.75M13.75 22.5L9.78125 18.9375C9.21875 18.4167 8.69792 17.9375 8.21875 17.5C7.73958 17.0625 7.29167 16.6458 6.875 16.25H10.5312C11.0104 16.6667 11.5156 17.1146 12.0469 17.5938C12.5781 18.0729 13.1458 18.5833 13.75 19.125C14.1042 18.8333 14.4323 18.5521 14.7344 18.2812C15.0365 18.0104 15.3333 17.7396 15.625 17.4688C15.9167 17.7812 16.224 18.0677 16.5469 18.3281C16.8698 18.5885 17.2188 18.8229 17.5938 19.0312V19.0312V19.0312L13.75 22.5V22.5M21.25 17.5C20.8958 17.5 20.599 17.3802 20.3594 17.1406C20.1198 16.901 20 16.6042 20 16.25C20 15.8958 20.1198 15.599 20.3594 15.3594C20.599 15.1198 20.8958 15 21.25 15C21.6042 15 21.901 15.1198 22.1406 15.3594C22.3802 15.599 22.5 15.8958 22.5 16.25C22.5 16.6042 22.3802 16.901 22.1406 17.1406C21.901 17.3802 21.6042 17.5 21.25 17.5V17.5M20 13.75V7.5H22.5V13.75H20V13.75M0 13.75C0 13.3333 0 12.9167 0 12.5C0 12.0833 0 11.6667 0 11.25H5.5625L7.75 8.03125C7.875 7.84375 8.02604 7.70833 8.20312 7.625C8.38021 7.54167 8.57292 7.5 8.78125 7.5C8.98958 7.5 9.18229 7.54688 9.35938 7.64062C9.53646 7.73438 9.6875 7.875 9.8125 8.0625L11.9375 11.25H13.875C13.8333 11.4583 13.8021 11.6615 13.7812 11.8594C13.7604 12.0573 13.75 12.2708 13.75 12.5C13.75 12.7292 13.7604 12.9427 13.7812 13.1406C13.8021 13.3385 13.8333 13.5417 13.875 13.75H11.25C11.0417 13.75 10.8438 13.6979 10.6562 13.5938C10.4688 13.4896 10.3229 13.3542 10.2188 13.1875L8.75 11L7.28125 13.1875C7.17708 13.3542 7.03125 13.4896 6.84375 13.5938C6.65625 13.6979 6.45833 13.75 6.25 13.75H0V13.75" fill="#238636"/>
</svg>
